<svg xmlns="http://www.w3.org/2000/svg" width="24" height="24" viewBox="0 0 24 24" fill="none">
  <path transform="translate(9.6, 8.4)" d="M4.2 0H0.6C0.2688 0 0 0.2688 0 0.6C0 0.9312 0.2688 1.2 0.6 1.2H4.2C4.5312 1.2 4.8 0.9312 4.8 0.6C4.8 0.2688 4.5312 0 4.2 0Z" fill="#3A3A39"/>
  <path transform="translate(8.4, 10.8)" d="M6.6 0H0.6C0.2688 0 0 0.2688 0 0.6C0 0.9312 0.2688 1.2 0.6 1.2H6.6C6.9312 1.2 7.2 0.9312 7.2 0.6C7.2 0.2688 6.9312 0 6.6 0Z" fill="#3A3A39"/>
  <path transform="translate(2.4, 6)" d="M13.7633 0.4992C13.5377 0.186 13.1993 0 12.8993 0H6.29928C5.99928 0 5.63088 0.1872 5.40648 0.5016L0.335276 6.396C-0.0211239 6.8952 -0.0991239 7.542 0.128876 8.1108L1.71168 12.0684C1.98528 12.7524 2.56368 13.2 3.30048 13.2H15.8993C16.6349 13.2 17.2157 12.7524 17.4881 12.0684L19.0721 8.1096C19.2989 7.5408 19.2209 6.8964 18.8633 6.3996L13.7621 0.5004L13.7633 0.4992ZM11.3993 10.8H7.79928C7.46808 10.8 7.19928 10.5312 7.19928 10.2C7.19928 9.8688 7.46808 9.6 7.79928 9.6H11.3993C11.7305 9.6 11.9993 9.8688 11.9993 10.2C11.9993 10.5312 11.7305 10.8 11.3993 10.8ZM16.1993 7.2H2.99928C2.52048 7.2 2.13288 6.6984 2.39928 6.3L6.50088 1.4676C6.61248 1.3008 6.89928 1.2 7.19928 1.2H11.9993C12.2993 1.2 12.5861 1.3008 12.6977 1.4676L16.7993 6.3C17.0657 6.6984 16.6781 7.2 16.1993 7.2Z" fill="#3A3A39"/>
</svg>
