<svg preserveAspectRatio="none" width="100%" height="100%" overflow="visible" style="display: block;" viewBox="0 0 15 16.6667" fill="none" xmlns="http://www.w3.org/2000/svg">
<path id="Vector" d="M13.3333 1.66667H9.85C9.5 0.7 8.58333 0 7.5 0C6.41667 0 5.5 0.7 5.15 1.66667H1.66667C0.75 1.66667 0 2.41667 0 3.33333V15C0 15.9167 0.75 16.6667 1.66667 16.6667H13.3333C14.25 16.6667 15 15.9167 15 15V3.33333C15 2.41667 14.25 1.66667 13.3333 1.66667ZM7.5 1.66667C7.95833 1.66667 8.33333 2.04167 8.33333 2.5C8.33333 2.95833 7.95833 3.33333 7.5 3.33333C7.04167 3.33333 6.66667 2.95833 6.66667 2.5C6.66667 2.04167 7.04167 1.66667 7.5 1.66667ZM8.33333 13.3333H4.16667C3.70833 13.3333 3.33333 12.9583 3.33333 12.5C3.33333 12.0417 3.70833 11.6667 4.16667 11.6667H8.33333C8.79167 11.6667 9.16667 12.0417 9.16667 12.5C9.16667 12.9583 8.79167 13.3333 8.33333 13.3333ZM10.8333 10H4.16667C3.70833 10 3.33333 9.625 3.33333 9.16667C3.33333 8.70833 3.70833 8.33333 4.16667 8.33333H10.8333C11.2917 8.33333 11.6667 8.70833 11.6667 9.16667C11.6667 9.625 11.2917 10 10.8333 10ZM10.8333 6.66667H4.16667C3.70833 6.66667 3.33333 6.29167 3.33333 5.83333C3.33333 5.375 3.70833 5 4.16667 5H10.8333C11.2917 5 11.6667 5.375 11.6667 5.83333C11.6667 6.29167 11.2917 6.66667 10.8333 6.66667Z" fill="var(--fill-0, #3A3A39)"/>
</svg>
