<svg xmlns="http://www.w3.org/2000/svg" width="24" height="24" viewBox="0 0 24 24" fill="none">
  <path transform="translate(2.4, 2.4)" d="M19.2139 8.56295C19.2268 9.61878 19.0433 10.6678 18.6727 11.6566C18.3681 12.5132 17.8408 13.2732 17.1451 13.8586C16.4989 14.387 15.6867 14.6701 14.8519 14.6578C14.3091 14.6678 13.7746 14.523 13.3111 14.2402C12.8843 13.9834 12.5486 13.5994 12.3511 13.1422H12.1627C11.7764 13.626 11.2839 14.0145 10.7232 14.2773C10.1626 14.5401 9.54898 14.6703 8.92993 14.6578C8.32611 14.6897 7.72228 14.595 7.15726 14.3796C6.59223 14.1643 6.07852 13.8331 5.64913 13.4074C4.81119 12.4703 4.37958 11.2389 4.44913 9.98375C4.41728 9.24523 4.54085 8.50826 4.81185 7.82052C5.08286 7.13279 5.49524 6.50962 6.02233 5.99135C6.57372 5.47891 7.22138 5.08107 7.92774 4.8209C8.63409 4.56073 9.38508 4.44341 10.1371 4.47575C10.8839 4.48192 11.629 4.54692 12.3655 4.67015C13.0453 4.76836 13.7156 4.9233 14.3695 5.13335L14.0995 10.8766C14.0995 11.9654 14.3975 12.5094 14.9935 12.5086C15.4951 12.5086 15.8951 12.1426 16.1935 11.4106C16.5223 10.4901 16.6738 9.51575 16.6399 8.53895C16.6635 7.37692 16.3932 6.22776 15.8539 5.19815C15.3527 4.25578 14.5807 3.48509 13.6375 2.98535C12.6303 2.4635 11.5089 2.20118 10.3747 2.22215C8.9382 2.18637 7.51675 2.522 6.24793 3.19655C5.08599 3.8384 4.14776 4.81976 3.55873 6.00935C2.9141 7.3297 2.59363 8.78475 2.62393 10.2538C2.56323 11.1567 2.68553 12.0626 2.98349 12.9171C3.28146 13.7716 3.74895 14.5571 4.35793 15.2266C5.03678 15.8377 5.83164 16.3061 6.69523 16.6038C7.55881 16.9015 8.47346 17.0224 9.38473 16.9594C10.3044 16.951 11.2214 16.8586 12.1243 16.6834C12.6435 16.5874 13.1591 16.4674 13.6711 16.3234C13.834 16.2776 14.0053 16.2702 14.1715 16.3016C14.3377 16.3331 14.4944 16.4027 14.6292 16.5049C14.7641 16.6071 14.8734 16.7391 14.9487 16.8906C15.024 17.0421 15.0631 17.209 15.0631 17.3781C15.0661 17.6007 15.0002 17.8186 14.8746 18.0023C14.7489 18.1859 14.5696 18.3263 14.3611 18.4041C12.7914 18.9486 11.1397 19.2185 9.47833 19.2022C6.93915 19.356 4.44007 18.5135 2.51233 16.8537C1.65789 16.0035 0.993425 14.9817 0.56277 13.8558C0.132116 12.73 -0.0549433 11.5256 0.0139314 10.3222C-0.0101617 8.48802 0.428559 6.67742 1.28953 5.05775C2.12136 3.49889 3.38229 2.2109 4.92313 1.34615C6.5815 0.427897 8.45309 -0.0357578 10.3483 0.00215149C11.9517 -0.0257658 13.5378 0.337082 14.9695 1.05935C16.2897 1.72948 17.382 2.77542 18.1087 4.06535C18.865 5.44177 19.2461 6.9928 19.2139 8.56295ZM7.17433 10.0306C7.17433 11.6834 7.84833 12.5094 9.19633 12.5086C9.50536 12.5265 9.81403 12.4678 10.095 12.3379C10.3759 12.2079 10.6204 12.0105 10.8067 11.7634C11.2461 11.0307 11.478 10.1924 11.4775 9.33815L11.6299 6.74255C11.1854 6.6517 10.7324 6.60825 10.2787 6.61295C9.8536 6.58881 9.42836 6.65842 9.03312 6.81685C8.63787 6.97528 8.28229 7.21866 7.99153 7.52975C7.41516 8.23138 7.12349 9.12397 7.17433 10.0306Z" fill="#434B4E"/>
</svg>
