<svg xmlns="http://www.w3.org/2000/svg" width="24" height="24" viewBox="0 0 24 24" fill="none">
  <path transform="translate(6, 4.8)" d="M13.8 4.5C13.8 3.0108 12.588 1.8 11.1 1.8H0V0.9C0 0.4032 0.4032 0 0.9 0H14.7C15.1968 0 15.6 0.4032 15.6 0.9V9.9C15.6 10.3968 15.1968 10.8 14.7 10.8H13.8V4.5Z" fill="#3A3A39"/>
  <path transform="translate(2.4, 8.4)" d="M14.7 0H0.9C0.4032 0 0 0.4032 0 0.9V4.8648C0.0696 4.8576 0.138 4.8432 0.21 4.8432H2.7852C2.8116 4.8324 2.8416 4.8324 2.8704 4.8264V3.8004C2.8704 3.0756 3.27 2.4036 3.9132 2.0424C3.978 2.0076 4.0428 1.9752 4.11 1.9476C4.3272 1.86 4.6308 1.8 4.8648 1.8C5.3988 1.8 5.9196 2.0196 6.2928 2.4012L10.8216 6.9792C11.5932 7.7508 11.5932 9.0168 10.8132 9.7968L9.828 10.8H14.7C15.1968 10.8 15.6 10.3968 15.6 9.9V0.9C15.6 0.4032 15.1968 0 14.7 0ZM13.2 4.56C13.2 4.692 13.092 4.8 12.96 4.8H11.04C10.908 4.8 10.8 4.692 10.8 4.56V2.64C10.8 2.508 10.908 2.4 11.04 2.4H12.96C13.092 2.4 13.2 2.5068 13.2 2.64V4.56Z" fill="#3A3A39"/>
  <path transform="translate(2.4, 12)" d="M5.0064 0.0597C4.9536 0.0057 4.8684 -0.0171 4.7916 0.0141C4.722 0.0525 4.6692 0.1233 4.6692 0.2001V3.0429H0.21C0.102 3.0429 0.0108 3.1737 0.0096 3.2817L0 6.3489C0 6.4569 0.0912 6.5613 0.198 6.5613H4.6692V9.4005C4.6692 9.4785 4.7232 9.5481 4.7916 9.5865C4.8684 9.6177 4.9524 9.5937 5.0064 9.5397L9.5412 4.9245C9.618 4.8465 9.6192 4.7229 9.5412 4.6449L5.0064 0.0597Z" fill="#3A3A39"/>
</svg>
