<svg xmlns="http://www.w3.org/2000/svg" width="24" height="24" viewBox="0 0 24 24" fill="none">
  <g transform="translate(3, 2.4)">
    <path d="M7.27421 18.4346L7.29941 18.347L7.33301 18.2618C8.12861 16.2854 8.34221 15.755 8.43941 15.5486L5.44781 15.1982C5.43941 15.1982 5.43101 15.1958 5.42261 15.1946C5.41421 15.1946 5.40701 15.1922 5.39861 15.191C5.14661 15.149 4.96901 14.9186 5.00021 14.6654L6.38621 3.21265L6.53861 1.95625C6.55181 1.85305 6.59621 1.76065 6.66341 1.68985C6.75941 1.58665 6.89981 1.52785 7.05101 1.53745C7.05941 1.53865 7.06781 1.53865 7.07621 1.54105C7.08461 1.54225 7.09301 1.54225 7.10141 1.54345L7.25261 1.56145L11.6878 2.08225L12.3382 2.15905L12.3298 2.18185C12.6994 2.23465 12.9658 2.55025 12.961 2.90905C12.9634 2.90905 12.9658 2.90905 12.9682 2.90665L12.9538 3.00385L12.5326 5.87185C12.4942 6.13585 12.6802 6.38185 12.949 6.41905L15.8614 6.83305L15.9586 6.84625L15.955 6.85225C16.273 6.93865 16.4806 7.22665 16.4818 7.55065L16.4446 7.88665C16.6402 7.83625 16.8406 7.80025 17.0482 7.80025C17.359 7.80025 17.659 7.86145 17.9398 7.97305L17.9878 7.58545C18.0106 7.42705 17.9986 7.27345 17.9554 7.12945C17.9254 7.02625 17.881 6.92905 17.8222 6.84025L17.7298 6.71905L16.8034 5.49865L14.5198 2.49145L13.5442 1.20865C13.465 1.10545 13.369 1.01545 13.2562 0.944647C13.1278 0.861847 12.979 0.805447 12.817 0.782647L11.5426 0.625447L6.27581 0.00744738C5.69141 -0.0609526 5.16221 0.349447 5.09261 0.924247L5.00381 1.65505C5.00381 1.68385 4.99901 1.71145 4.99421 1.73785C4.95461 1.92745 4.81181 2.07985 4.62581 2.13385C4.60301 2.13985 4.58021 2.14585 4.55621 2.14825L0.83501 2.95945C0.26141 3.08545 -0.10099 3.64465 0.0250099 4.20865L3.21461 18.3782C3.34181 18.9422 3.91061 19.2998 4.48421 19.1738L7.25381 18.5702C7.26341 18.5246 7.26341 18.479 7.27661 18.4346H7.27421ZM3.78701 11.6846C3.78701 11.6966 3.78581 11.7086 3.78341 11.7194C3.76061 11.8286 3.66341 11.9102 3.54701 11.9102C3.44381 11.9102 3.35501 11.8454 3.32141 11.7566C3.31301 11.7362 3.30821 11.7134 3.30701 11.6918L1.73621 4.71505C1.67981 4.46665 1.83341 4.21945 2.07941 4.15225C2.08781 4.15105 2.09501 4.14865 2.10341 4.14745C2.11181 4.14625 2.12021 4.14385 2.12861 4.14265L4.42181 3.64225H4.42541C4.43381 3.63985 4.44221 3.63865 4.45181 3.63625C4.46621 3.63265 4.47941 3.63265 4.49381 3.63265C4.62581 3.63265 4.73261 3.73585 4.73501 3.86425C4.73501 3.86425 4.73501 3.86785 4.73501 3.87025C4.73501 3.89065 4.73261 3.91105 4.72661 3.93145L4.58261 5.12065L4.33661 7.15465L3.78821 11.6858L3.78701 11.6846ZM6.70901 17.2262C6.68261 17.2382 6.65261 17.2442 6.62021 17.2454L5.14901 17.567C5.14181 17.5694 5.13341 17.5706 5.12381 17.573C5.11661 17.5742 5.10821 17.5778 5.09981 17.5778C4.84661 17.6198 4.60301 17.4602 4.54661 17.2118L4.47221 16.8782C4.46021 16.8518 4.45421 16.8242 4.45421 16.7954C4.45421 16.7906 4.45421 16.787 4.45421 16.7846C4.45421 16.6574 4.55501 16.5542 4.68101 16.547C4.68581 16.547 4.69061 16.547 4.69541 16.547C4.72061 16.547 4.74461 16.5506 4.76741 16.5578L6.59741 16.7726C6.59741 16.7726 6.60701 16.7714 6.61181 16.7714C6.63701 16.7714 6.66221 16.7762 6.68501 16.7822C6.78341 16.8122 6.85421 16.9034 6.85421 17.009C6.85421 17.1074 6.79421 17.1902 6.70901 17.2274V17.2262Z" fill="#3A3A39"/>
    <path d="M14.815 17.7338L15.6526 17.8322C16.237 17.9006 16.7662 17.4902 16.8358 16.9154L17.005 15.5426L14.815 17.7338Z" fill="#3A3A39"/>
  </g>
  <g transform="translate(12, 12)">
    <path d="M7.79915 3.6033L2.85275 8.5533C2.82995 8.5689 0.27395 9.5985 0.27395 9.5985C-0.0020501 9.6093 -0.0152502 9.4089 0.00754977 9.3321C0.00754977 9.3321 1.03595 6.7749 1.05035 6.7533L5.99915 1.8021L7.80035 3.6045L7.79915 3.6033Z" fill="#3A3A39"/>
    <path d="M9.42155 1.1229L8.47715 0.1773C8.24075 -0.0591 7.85795 -0.0591 7.62155 0.1773L6.59915 1.2009L8.40035 3.0033L9.42275 1.9797C9.65915 1.7433 9.65915 1.3605 9.42275 1.1241L9.42155 1.1229Z" fill="#3A3A39"/>
  </g>
</svg>
