<svg preserveAspectRatio="none" width="100%" height="100%" overflow="visible" style="display: block;" viewBox="0 0 15.7375 14.95" fill="none" xmlns="http://www.w3.org/2000/svg">
<g id="Vector">
<path d="M15.375 12.8146L11.2583 8.69792L9.49167 10.4646L13.6083 14.5813C14.1 15.0729 14.8917 15.0729 15.375 14.5813C15.8583 14.0896 15.8583 13.2979 15.375 12.8146Z" fill="var(--fill-0, #3A3A39)"/>
<path d="M12.5917 6.15625C14.2 6.15625 15.5083 4.84792 15.5083 3.23958C15.5083 2.75625 15.375 2.30625 15.1667 1.90625L12.9167 4.15625L11.675 2.91458L13.925 0.664583C13.525 0.45625 13.075 0.322917 12.5917 0.322917C10.9833 0.322917 9.675 1.63125 9.675 3.23958C9.675 3.58125 9.74167 3.90625 9.85 4.20625L8.30833 5.74792L6.825 4.26458C7.15 3.93958 7.15 3.41458 6.825 3.08958L6.23333 2.49792L8 0.73125C7.025 -0.24375 5.44167 -0.24375 4.46667 0.73125L2.11667 3.08958C1.79167 3.41458 1.79167 3.93958 2.11667 4.26458L2.70833 4.85625H0.591667C0.433333 4.85625 0.283333 4.91458 0.175 5.03125C-0.0583333 5.26458 -0.0583333 5.63125 0.175 5.86458L2.29167 7.98125C2.525 8.21458 2.89167 8.21458 3.125 7.98125C3.23333 7.87292 3.3 7.72292 3.3 7.56458V5.44792L3.88333 6.03125C4.20833 6.35625 4.73333 6.35625 5.05833 6.03125L6.54167 7.51458L1.25 12.8063C0.758333 13.2979 0.758333 14.0896 1.25 14.5729C1.74167 15.0646 2.53333 15.0646 3.01667 14.5729L11.6167 5.98125C11.925 6.08958 12.25 6.15625 12.5917 6.15625Z" fill="var(--fill-0, #3A3A39)"/>
</g>
</svg>
