<svg xmlns="http://www.w3.org/2000/svg" width="24" height="24" viewBox="0 0 24 24" fill="none">
  <path transform="translate(3.6, 4.8)" d="M15.5892 0H1.21083C1.05178 -0.000157 0.894262 0.0311 0.74729 0.0918C0.600318 0.1526 0.466777 0.2418 0.354313 0.3543C0.241848 0.4667 0.152667 0.6003 0.0918749 0.7473C0.0310825 0.8942 -0.000128 1.0518 2.98206e-05 1.2108V10.8C-0.00109 10.9579 0.0292 11.1144 0.0891 11.2605C0.149 11.4066 0.2374 11.5394 0.349 11.651C0.4607 11.7627 0.5934 11.851 0.7395 11.9109C0.8856 11.9708 1.0421 12.0011 1.2 12H5.4C5.5592 12 5.7118 12.0632 5.8243 12.1757C5.9368 12.2883 6 12.4409 6 12.6C6 12.7591 5.9368 12.9117 5.8243 13.0243C5.7118 13.1368 5.5592 13.2 5.4 13.2C5.2409 13.2 5.0883 13.2632 4.9758 13.3757C4.8632 13.4883 4.8 13.6409 4.8 13.8C4.8 13.9591 4.8632 14.1117 4.9758 14.2243C5.0883 14.3368 5.2409 14.4 5.4 14.4H11.4C11.5592 14.4 11.7118 14.3368 11.8243 14.2243C11.9368 14.1117 12 13.9591 12 13.8C12 13.6409 11.9368 13.4883 11.8243 13.3757C11.7118 13.2632 11.5592 13.2 11.4 13.2C11.2409 13.2 11.0883 13.1368 10.9758 13.0243C10.8632 12.9117 10.8 12.7591 10.8 12.6C10.8 12.4409 10.8632 12.2883 10.9758 12.1757C11.0883 12.0632 11.2409 12 11.4 12H15.6C15.7579 12.001 15.9144 11.9706 16.0604 11.9106C16.2064 11.8506 16.3391 11.7623 16.4507 11.6507C16.5623 11.539 16.6507 11.4064 16.7106 11.2604C16.7706 11.1143 16.801 10.9579 16.8 10.8V1.2108C16.8 0.8897 16.6725 0.5817 16.4454 0.3546C16.2183 0.1276 15.9104 0 15.5892 0ZM8.4 12C8.2814 12 8.1654 11.9648 8.0667 11.8989C7.968 11.833 7.8911 11.7392 7.8457 11.6296C7.8003 11.52 7.7884 11.3993 7.8116 11.2829C7.8347 11.1666 7.8919 11.0596 7.9758 10.9757C8.0597 10.8918 8.1666 10.8347 8.283 10.8115C8.3994 10.7884 8.52 10.8003 8.6296 10.8457C8.7393 10.8911 8.833 10.968 8.8989 11.0667C8.9648 11.1653 9 11.2813 9 11.4C9 11.5591 8.9368 11.7117 8.8243 11.8243C8.7118 11.9368 8.5592 12 8.4 12ZM15 9.6C15.0087 9.6809 14.9992 9.7628 14.9721 9.8395C14.9451 9.9163 14.9011 9.986 14.8436 10.0436C14.786 10.1011 14.7163 10.145 14.6396 10.1721C14.5628 10.1992 14.481 10.2087 14.4 10.2H2.4C1.9704 10.2 1.8 10.0428 1.8 9.6V2.4C1.7929 2.3194 1.8035 2.2382 1.8311 2.1622C1.8587 2.0861 1.9027 2.0171 1.9599 1.9599C2.0171 1.9027 2.0862 1.8587 2.1622 1.8311C2.2383 1.8034 2.3194 1.7928 2.4 1.8H14.4C14.4804 1.7937 14.5612 1.8049 14.6369 1.8328C14.7126 1.8607 14.7813 1.9047 14.8383 1.9617C14.8953 2.0188 14.9393 2.0875 14.9672 2.1631C14.9952 2.2388 15.0063 2.3196 15 2.4V9.6Z" fill="#434B4E"/>
</svg>
