<svg preserveAspectRatio="xMidYMid meet" width="100%" height="100%" overflow="visible" style="display: block;" viewBox="0 0 124.5 29.5" fill="none" xmlns="http://www.w3.org/2000/svg">
<g id="distribute_logo_black_RGB 1" clip-path="url(#clip0_0_1125)">
<path id="Vector" d="M46.4827 5.23487C46.5766 5.32875 46.6501 5.44066 46.6988 5.56373C46.7474 5.68679 46.7701 5.8184 46.7655 5.95047V19.3084C46.7681 19.4387 46.7445 19.5682 46.6959 19.6893C46.6474 19.8104 46.5749 19.9207 46.4827 20.0137C46.3895 20.1095 46.277 20.1848 46.1526 20.2349C46.0281 20.2849 45.8944 20.3085 45.7601 20.3041C45.6283 20.3093 45.4968 20.2871 45.3741 20.2389C45.2514 20.1906 45.1404 20.1174 45.048 20.024C44.957 19.9286 44.886 19.8162 44.8392 19.6934C44.7925 19.5705 44.7709 19.4396 44.7758 19.3084V18.7277C44.3898 19.2575 43.8841 19.6907 43.2992 19.9929C42.6745 20.3358 41.9714 20.5143 41.2572 20.5115C40.3455 20.5224 39.4504 20.2701 38.6811 19.7855C37.9 19.2873 37.2702 18.5883 36.859 17.7631C36.4027 16.8591 36.1728 15.8595 36.1888 14.8489C36.1729 13.8394 36.399 12.8407 36.8485 11.9346C37.2539 11.1088 37.8806 10.4092 38.6602 9.91223C39.3399 9.4885 40.1168 9.24162 40.9186 9.19448C41.7204 9.14735 42.5212 9.30148 43.2469 9.64258C43.8391 9.91891 44.3615 10.3229 44.7758 10.8249V5.95047C44.7709 5.81926 44.7925 5.68841 44.8392 5.56555C44.886 5.44268 44.957 5.33027 45.048 5.23487C45.1404 5.14151 45.2515 5.06837 45.3741 5.02017C45.4968 4.97198 45.6283 4.9498 45.7601 4.95508C45.8935 4.95046 46.0264 4.97291 46.1506 5.02102C46.2749 5.06914 46.3879 5.14191 46.4827 5.23487ZM43.2364 18.1882C43.753 17.8484 44.1659 17.375 44.4302 16.8194C44.7132 16.2021 44.8596 15.532 44.8596 14.8541C44.8596 14.1761 44.7132 13.506 44.4302 12.8887C44.168 12.3289 43.7549 11.8515 43.2364 11.5093C42.7122 11.184 42.1061 11.0116 41.4876 11.0116C40.869 11.0116 40.263 11.184 39.7388 11.5093C39.2201 11.8513 38.8069 12.3287 38.545 12.8887C38.262 13.506 38.1156 14.1761 38.1156 14.8541C38.1156 15.532 38.262 16.2021 38.545 16.8194C38.8091 17.3752 39.222 17.8486 39.7388 18.1882C40.2629 18.5136 40.869 18.6862 41.4876 18.6862C42.1062 18.6862 42.7123 18.5136 43.2364 18.1882Z" fill="var(--fill-0, white)"/>
<path id="Vector_2" d="M49.3289 7.74468C49.1542 7.59948 49.0669 7.36786 49.0671 7.04981V6.71817C49.0671 6.38629 49.1613 6.15121 49.3498 6.01293C49.5382 5.87465 49.8279 5.80551 50.2191 5.80551C50.6097 5.80551 50.8924 5.87811 51.0673 6.0233C51.2421 6.1685 51.3294 6.40012 51.3291 6.71817V7.05004C51.3291 7.38192 51.2383 7.61696 51.0568 7.75516C50.8753 7.89337 50.589 7.96251 50.198 7.96258C49.793 7.96266 49.5033 7.89002 49.3289 7.74468ZM50.9206 20.0137C50.8274 20.1095 50.7149 20.1849 50.5904 20.2349C50.4659 20.2849 50.3323 20.3085 50.198 20.3041C50.067 20.3071 49.9369 20.2828 49.8161 20.2328C49.6952 20.1827 49.5863 20.1081 49.4965 20.0137C49.4043 19.9207 49.3317 19.8105 49.2832 19.6893C49.2346 19.5682 49.2109 19.4387 49.2136 19.3084V10.3271C49.211 10.1968 49.2346 10.0673 49.2832 9.94619C49.3318 9.82508 49.4043 9.71481 49.4965 9.62184C49.5864 9.5275 49.6953 9.4529 49.8161 9.40287C49.937 9.35285 50.0671 9.32852 50.198 9.33145C50.3322 9.32712 50.4659 9.35073 50.5904 9.40075C50.7148 9.45077 50.8273 9.52609 50.9206 9.62184C51.0127 9.71483 51.0852 9.8251 51.1338 9.9462C51.1824 10.0673 51.2061 10.1968 51.2034 10.3271V19.3084C51.2061 19.4387 51.1824 19.5682 51.1339 19.6893C51.0853 19.8104 51.0128 19.9207 50.9206 20.0137Z" fill="var(--fill-0, white)"/>
<path id="Vector_3" d="M52.8787 18.0432C52.8787 17.7666 53.0253 17.5315 53.3185 17.3379C53.4597 17.2407 53.6282 17.1899 53.8002 17.1927C53.9307 17.1954 54.0593 17.2243 54.1781 17.2778C54.2969 17.3313 54.4035 17.4082 54.4913 17.5039C54.8673 17.9408 55.3263 18.3002 55.8422 18.5617C56.3831 18.8094 56.9744 18.9301 57.5701 18.9143C58.061 18.9109 58.5433 18.7862 58.9732 18.5514C59.3783 18.3231 59.5808 17.9532 59.5807 17.4416C59.5875 17.223 59.5335 17.0068 59.4245 16.8165C59.3156 16.6263 59.1558 16.4694 58.9629 16.3631C58.5508 16.114 57.9469 15.8858 57.1512 15.6786C56.486 15.5107 55.8348 15.2923 55.2034 15.0252C54.693 14.8018 54.2441 14.4603 53.8944 14.0296C53.5384 13.5938 53.3604 13.0234 53.3604 12.3183C53.3497 11.7285 53.5376 11.152 53.8944 10.6797C54.2656 10.1978 54.7562 9.81911 55.3186 9.58036C55.9288 9.3142 56.5892 9.17982 57.2559 9.18614C57.9401 9.18872 58.618 9.31529 59.2562 9.55962C59.8909 9.78857 60.4515 10.1827 60.8792 10.7004C61.0344 10.8638 61.1238 11.0778 61.1306 11.302C61.1306 11.5233 61.0189 11.7376 60.7955 11.945C60.6514 12.071 60.4641 12.1378 60.2719 12.1316C60.1585 12.1362 60.0455 12.1162 59.9406 12.0733C59.8358 12.0303 59.7416 11.9653 59.6646 11.8827C59.3686 11.549 58.9996 11.2866 58.5858 11.1153C58.1379 10.9314 57.657 10.8396 57.1722 10.8456C56.7009 10.831 56.2344 10.9421 55.8213 11.1671C55.4511 11.3817 55.2661 11.7447 55.2663 12.2561C55.2629 12.4765 55.3207 12.6937 55.4333 12.8838C55.546 13.074 55.7091 13.2299 55.9051 13.3346C56.3167 13.5699 56.9485 13.7981 57.8005 14.0192C58.4312 14.1756 59.0478 14.3838 59.6437 14.6415C60.132 14.8627 60.5568 15.2014 60.8792 15.6267C61.2145 16.0623 61.3821 16.6327 61.382 17.3379C61.395 17.949 61.1954 18.5459 60.8165 19.0283C60.4278 19.5143 59.9193 19.8929 59.3399 20.1276C58.7271 20.3847 58.068 20.5153 57.4025 20.5117C56.5668 20.5199 55.7377 20.3649 54.9626 20.0554C54.2111 19.7479 53.5565 19.2466 53.0672 18.6034C52.9509 18.4387 52.8854 18.2441 52.8787 18.0432Z" fill="var(--fill-0, white)"/>
<path id="Vector_4" d="M66.3806 11.3642V17.5452C66.3806 18.2366 66.6947 18.5824 67.323 18.5824C67.4584 18.576 67.5922 18.5515 67.721 18.5098C67.8498 18.4681 67.9836 18.4437 68.1189 18.4373C68.2083 18.4373 68.2965 18.4579 68.3765 18.4975C68.4565 18.5371 68.526 18.5946 68.5797 18.6654C68.7098 18.8309 68.7766 19.0366 68.7682 19.2462C68.7682 19.5366 68.6006 19.7855 68.2655 19.9929C67.9262 20.2015 67.5338 20.3094 67.1345 20.3041C66.7077 20.3081 66.282 20.2593 65.8673 20.1589C65.4833 20.0623 65.1412 19.8168 64.8412 19.4224C64.5411 19.028 64.391 18.43 64.3909 17.6283V11.3642H63.1765C63.0545 11.3678 62.933 11.3466 62.8196 11.3021C62.7061 11.2575 62.6031 11.1904 62.5168 11.1049C62.4305 11.0194 62.3627 10.9174 62.3177 10.805C62.2727 10.6926 62.2513 10.5724 62.255 10.4515C62.2506 10.3322 62.2717 10.2132 62.3168 10.1024C62.3619 9.99166 62.43 9.89152 62.5168 9.80852C62.6046 9.72579 62.7081 9.66119 62.8214 9.61845C62.9346 9.57572 63.0553 9.55572 63.1765 9.55962H64.3909V7.81716C64.3883 7.6869 64.4119 7.55743 64.4604 7.43634C64.509 7.31524 64.5814 7.20495 64.6735 7.11192C64.7668 7.01623 64.8793 6.94096 65.0037 6.89096C65.1282 6.84097 65.2618 6.81735 65.3961 6.82165C65.527 6.81872 65.6572 6.84305 65.778 6.89305C65.8989 6.94305 66.0079 7.01761 66.0978 7.11192C66.1899 7.20495 66.2623 7.31524 66.3109 7.43634C66.3594 7.55743 66.3831 7.6869 66.3804 7.81716V9.55962H68.1189C68.2409 9.55601 68.3623 9.57715 68.4758 9.62173C68.5892 9.66632 68.6923 9.7334 68.7786 9.81887C68.8649 9.90433 68.9326 10.0064 68.9777 10.1187C69.0227 10.2311 69.0441 10.3513 69.0404 10.4722C69.0448 10.5915 69.0237 10.7105 68.9786 10.8213C68.9335 10.9321 68.8654 11.0322 68.7786 11.1153C68.6908 11.198 68.5872 11.2625 68.474 11.3053C68.3607 11.348 68.24 11.368 68.1189 11.3642H66.3806Z" fill="var(--fill-0, white)"/>
<path id="Vector_5" d="M77.0121 9.46628C77.1321 9.53957 77.2315 9.64169 77.301 9.76315C77.3706 9.88462 77.4081 10.0215 77.41 10.1611C77.41 10.493 77.3227 10.7454 77.1482 10.9182C77.0653 11.0024 76.9658 11.0689 76.8559 11.1135C76.746 11.1582 76.628 11.18 76.5093 11.1777C76.3157 11.1637 76.1252 11.1218 75.9438 11.0532C75.7221 10.9708 75.4891 10.9219 75.2527 10.9081C74.7927 10.9173 74.3482 11.0738 73.9855 11.354C73.5544 11.6744 73.2093 12.0946 72.9802 12.5778C72.7171 13.1175 72.5844 13.7105 72.5928 14.3098V19.3087C72.5955 19.439 72.5719 19.5685 72.5233 19.6896C72.4747 19.8107 72.4022 19.9209 72.31 20.0139C72.2168 20.1097 72.1044 20.1851 71.9799 20.2351C71.8554 20.2851 71.7217 20.3087 71.5875 20.3043C71.4556 20.3095 71.3241 20.2873 71.2014 20.2391C71.0788 20.1909 70.9677 20.1177 70.8754 20.0243C70.7843 19.9289 70.7133 19.8165 70.6666 19.6936C70.6199 19.5707 70.5983 19.4399 70.6032 19.3087V10.4308C70.6006 10.3005 70.6242 10.1711 70.6728 10.05C70.7213 9.92887 70.7937 9.81858 70.8858 9.72555C70.9757 9.63116 71.0846 9.55652 71.2055 9.50648C71.3264 9.45643 71.4565 9.4321 71.5875 9.43505C71.7217 9.43072 71.8554 9.45434 71.9799 9.50438C72.1043 9.55442 72.2168 9.62977 72.31 9.72555C72.4022 9.81854 72.4747 9.92882 72.5232 10.0499C72.5718 10.171 72.5954 10.3005 72.5928 10.4308V11.4889C72.8902 10.8229 73.3688 10.252 73.9751 9.83986C74.5906 9.41772 75.3207 9.18991 76.0695 9.18637C76.4057 9.17833 76.7358 9.27635 77.0121 9.46628Z" fill="var(--fill-0, white)"/>
<path id="Vector_6" d="M78.836 7.74468C78.6613 7.59948 78.574 7.36786 78.5742 7.04981V6.71817C78.5742 6.38629 78.6685 6.15121 78.857 6.01293C79.0455 5.87465 79.3352 5.80551 79.7261 5.80551C80.1169 5.80551 80.3996 5.87811 80.5744 6.0233C80.7491 6.1685 80.8364 6.40012 80.8362 6.71817V7.05004C80.8362 7.38192 80.7454 7.61696 80.5639 7.75516C80.3824 7.89337 80.0961 7.96251 79.7052 7.96258C79.3005 7.96266 79.0108 7.89002 78.836 7.74468ZM80.4278 20.0137C80.3346 20.1095 80.2221 20.1849 80.0976 20.2349C79.9731 20.2849 79.8395 20.3085 79.7052 20.3041C79.5742 20.3071 79.4441 20.2828 79.3232 20.2328C79.2023 20.1827 79.0934 20.1081 79.0036 20.0137C78.9114 19.9207 78.8389 19.8104 78.7904 19.6893C78.7418 19.5682 78.7182 19.4387 78.7208 19.3084V10.3271C78.7182 10.1968 78.7419 10.0673 78.7904 9.94624C78.839 9.82515 78.9114 9.71486 79.0036 9.62184C79.0935 9.52749 79.2024 9.45289 79.3232 9.40287C79.4441 9.35285 79.5742 9.32852 79.7052 9.33145C79.8394 9.32712 79.9731 9.35073 80.0976 9.40075C80.222 9.45077 80.3345 9.52609 80.4278 9.62184C80.5199 9.71483 80.5924 9.8251 80.641 9.9462C80.6896 10.0673 80.7133 10.1968 80.7106 10.3271V19.3084C80.7133 19.4387 80.6896 19.5682 80.6411 19.6893C80.5925 19.8104 80.52 19.9207 80.4278 20.0137Z" fill="var(--fill-0, white)"/>
<path id="Vector_7" d="M91.2724 9.91223C92.05 10.407 92.6765 11.1027 93.0842 11.9242C93.5344 12.8264 93.7605 13.822 93.7438 14.8281C93.7589 15.8408 93.5329 16.8427 93.0842 17.7528C92.681 18.5828 92.054 19.2863 91.2724 19.7855C90.5169 20.2662 89.6363 20.5185 88.7383 20.5117C88.0323 20.5164 87.3354 20.3528 86.7066 20.0346C86.1201 19.7492 85.5996 19.3467 85.1777 18.8523V19.4539C85.1804 19.5841 85.1568 19.7136 85.1083 19.8347C85.0597 19.9558 84.9873 20.0661 84.8951 20.1591C84.7054 20.3434 84.4508 20.4475 84.1851 20.4495C83.9193 20.4514 83.6632 20.351 83.4708 20.1695C83.3769 20.0756 83.3034 19.9637 83.2548 19.8406C83.2062 19.7175 83.1835 19.5859 83.1882 19.4539V5.95047C83.1833 5.81926 83.2048 5.6884 83.2516 5.56553C83.2983 5.44267 83.3693 5.33025 83.4604 5.23487C83.5528 5.14148 83.6639 5.06833 83.7865 5.02013C83.9092 4.97194 84.0407 4.94978 84.1725 4.95508C84.3068 4.95077 84.4405 4.97439 84.5649 5.0244C84.6894 5.07442 84.8019 5.14973 84.8951 5.24547C84.9872 5.33849 85.0596 5.44879 85.1082 5.56988C85.1567 5.69098 85.1804 5.82044 85.1777 5.9507V11.0118C85.5571 10.4746 86.0595 10.0339 86.6438 9.72578C87.2684 9.37084 87.9762 9.18482 88.6963 9.18637C89.6079 9.1757 90.503 9.4279 91.2724 9.91223ZM90.2044 18.178C90.7267 17.8327 91.1432 17.3519 91.4086 16.7883C91.7003 16.1757 91.8471 15.5053 91.838 14.8281C91.8479 14.1541 91.7009 13.4869 91.4086 12.8782C91.1425 12.3205 90.7257 11.8467 90.2044 11.5093C89.6871 11.1773 89.0823 11.0042 88.4659 11.0116C87.8428 11.0021 87.2307 11.1753 86.7066 11.5093C86.1872 11.8444 85.7706 12.3143 85.5024 12.8679C85.2077 13.4795 85.0607 14.1506 85.0731 14.8281C85.0615 15.5089 85.2084 16.1832 85.5024 16.7986C85.7699 17.3582 86.1862 17.835 86.7066 18.178C87.2283 18.5184 87.8413 18.6955 88.4659 18.6862C89.0838 18.6934 89.6895 18.5163 90.2044 18.178Z" fill="var(--fill-0, white)"/>
<path id="Vector_8" d="M104.446 9.72578C104.538 9.8188 104.611 9.92909 104.659 10.0502C104.708 10.1713 104.731 10.3008 104.729 10.431V15.9484C104.729 17.3866 104.327 18.5032 103.524 19.2982C102.721 20.0932 101.587 20.4907 100.121 20.491C98.6688 20.491 97.5449 20.0934 96.7492 19.2982C95.9535 18.503 95.5555 17.3864 95.5554 15.9484V10.4308C95.5528 10.3005 95.5764 10.1711 95.6249 10.05C95.6735 9.92887 95.7459 9.81858 95.838 9.72555C95.9279 9.63116 96.0368 9.55652 96.1577 9.50647C96.2786 9.45643 96.4087 9.4321 96.5397 9.43505C96.674 9.43073 96.8077 9.45436 96.9321 9.5044C97.0566 9.55444 97.1691 9.62978 97.2623 9.72555C97.3544 9.81858 97.4268 9.92887 97.4754 10.05C97.5239 10.1711 97.5475 10.3005 97.5449 10.4308V15.9484C97.5449 17.7602 98.4036 18.6659 100.121 18.6657C100.973 18.6657 101.622 18.4375 102.069 17.9812C102.516 17.5248 102.739 16.8473 102.739 15.9484V10.4308C102.736 10.3005 102.76 10.171 102.809 10.0499C102.857 9.92884 102.93 9.81856 103.022 9.72555C103.112 9.63116 103.221 9.55652 103.342 9.50648C103.462 9.45643 103.593 9.4321 103.724 9.43505C103.858 9.43076 103.991 9.45442 104.116 9.5045C104.24 9.55458 104.353 9.62997 104.446 9.72578Z" fill="var(--fill-0, white)"/>
<path id="Vector_9" d="M110.191 11.3642V17.5452C110.191 18.2366 110.505 18.5823 111.133 18.5823C111.269 18.5759 111.402 18.5515 111.531 18.5097C111.66 18.4682 111.794 18.4439 111.929 18.4375C112.018 18.4375 112.107 18.4581 112.187 18.4977C112.267 18.5373 112.336 18.5948 112.39 18.6657C112.52 18.8311 112.587 19.0369 112.578 19.2464C112.578 19.5368 112.411 19.7857 112.076 19.9932C111.736 20.2017 111.344 20.3097 110.945 20.3043C110.518 20.3083 110.092 20.2595 109.678 20.1591C109.293 20.0625 108.951 19.817 108.651 19.4226C108.352 19.0282 108.201 18.4302 108.201 17.6286V11.3642H106.986C106.864 11.3678 106.743 11.3466 106.629 11.3021C106.516 11.2575 106.413 11.1904 106.327 11.1049C106.24 11.0194 106.173 10.9174 106.128 10.805C106.082 10.6926 106.061 10.5724 106.065 10.4515C106.06 10.3322 106.081 10.2132 106.127 10.1024C106.172 9.99164 106.24 9.8915 106.327 9.80852C106.414 9.72579 106.518 9.66118 106.631 9.61845C106.744 9.57572 106.865 9.55572 106.986 9.55961H108.201V7.81715C108.198 7.68688 108.222 7.55741 108.271 7.43632C108.319 7.31522 108.392 7.20494 108.484 7.11192C108.577 7.01622 108.69 6.94094 108.814 6.89095C108.938 6.84095 109.072 6.81734 109.206 6.82164C109.337 6.81873 109.467 6.84307 109.588 6.89307C109.709 6.94307 109.818 7.01762 109.908 7.11192C110 7.20494 110.073 7.31522 110.121 7.43632C110.17 7.55741 110.193 7.68688 110.191 7.81715V9.55961H111.929C112.051 9.55601 112.173 9.57715 112.286 9.62173C112.399 9.66631 112.502 9.7334 112.589 9.81886C112.675 9.90432 112.743 10.0064 112.788 10.1187C112.833 10.2311 112.854 10.3513 112.851 10.4722C112.855 10.5915 112.834 10.7105 112.789 10.8213C112.744 10.9321 112.676 11.0322 112.589 11.1153C112.501 11.198 112.397 11.2626 112.284 11.3053C112.171 11.348 112.05 11.368 111.929 11.3642H110.191Z" fill="var(--fill-0, white)"/>
<path id="Vector_10" d="M123.457 15.0874C123.268 15.2577 123.021 15.3504 122.765 15.3467H115.393C115.491 16.3563 115.878 17.1652 116.555 17.7735C117.233 18.3825 118.122 18.7094 119.037 18.6862C119.708 18.6862 120.252 18.5894 120.671 18.3958C121.08 18.2089 121.455 17.9566 121.781 17.6491C121.962 17.533 122.172 17.4684 122.388 17.4624C122.5 17.46 122.611 17.4809 122.714 17.5238C122.816 17.5667 122.909 17.6306 122.985 17.7113C123.062 17.7875 123.123 17.8781 123.164 17.9778C123.206 18.0775 123.227 18.1843 123.226 18.2921C123.226 18.5824 123.087 18.8451 122.807 19.0803C122.342 19.5201 121.794 19.8654 121.195 20.0966C120.545 20.3689 119.847 20.5099 119.142 20.5115C118.011 20.5115 117.016 20.2764 116.158 19.8061C115.316 19.3534 114.625 18.669 114.168 17.8356C113.691 16.9565 113.449 15.971 113.466 14.9732C113.466 13.8116 113.707 12.7918 114.189 11.9137C114.628 11.0811 115.286 10.3821 116.095 9.89126C116.857 9.43347 117.73 9.18969 118.621 9.18606C119.512 9.18243 120.387 9.41908 121.153 9.87063C121.935 10.3278 122.585 10.9782 123.038 11.7582C123.517 12.5776 123.77 13.5076 123.771 14.4547C123.765 14.5758 123.734 14.6944 123.68 14.8032C123.626 14.9121 123.55 15.0088 123.457 15.0874ZM116.608 11.6649C116.035 12.1005 115.658 12.7746 115.477 13.6873H121.655V13.5213C121.626 13.1683 121.522 12.8254 121.351 12.5147C121.179 12.2039 120.944 11.9321 120.66 11.7168C120.091 11.255 119.376 11.0055 118.639 11.0116C117.907 10.9955 117.191 11.2258 116.608 11.6649Z" fill="var(--fill-0, white)"/>
<path id="Vector_11" d="M27.9251 12.9062H13.9625C12.5966 12.9062 12.1008 11.8037 12.1008 11.0625V3.45703C12.1008 3.27366 12.1744 3.0978 12.3053 2.96813C12.4362 2.83847 12.6138 2.76563 12.799 2.76562C12.9841 2.76562 13.1617 2.83847 13.2926 2.96813C13.4235 3.0978 13.4971 3.27366 13.4971 3.45703V11.0625C13.5122 11.5234 13.8512 11.5234 13.9625 11.5234H27.9251C28.0365 11.5234 28.3754 11.5234 28.3906 11.0524V1.84375C28.3754 1.38281 28.0365 1.38281 27.9251 1.38281H17.6859C17.5007 1.38281 17.3231 1.30997 17.1922 1.1803C17.0613 1.05064 16.9877 0.874779 16.9877 0.691406C16.9877 0.508034 17.0613 0.332172 17.1922 0.202508C17.3231 0.0728444 17.5007 0 17.6859 0L27.9251 0C29.291 0 29.7868 1.10256 29.7868 1.84375V11.0625C29.7868 11.8037 29.291 12.9062 27.9251 12.9062Z" fill="var(--fill-0, white)"/>
<path id="Vector_12" d="M21.005 7.95397C20.4856 7.945 19.9832 7.76885 19.5738 7.45212C19.5646 7.44475 19.5557 7.43714 19.5468 7.42908L15.1253 3.51111C14.9909 3.38793 14.9108 3.21738 14.9021 3.03622C14.8935 2.85507 14.9571 2.6778 15.0792 2.54264C15.2013 2.40747 15.3721 2.32524 15.5549 2.31365C15.7376 2.30206 15.9177 2.36205 16.0562 2.48068L20.4594 6.3824C20.5903 6.47932 21.0199 6.74286 21.4083 6.39865L25.8298 2.48068C25.9683 2.36205 26.1483 2.30206 26.3311 2.31365C26.5138 2.32524 26.6847 2.40747 26.8068 2.54264C26.9289 2.6778 26.9924 2.85507 26.9838 3.03622C26.9752 3.21738 26.895 3.38793 26.7606 3.51111L22.3391 7.42908C21.9774 7.76485 21.5007 7.95241 21.005 7.95397Z" fill="var(--fill-0, white)"/>
<path id="Vector_13" d="M26.2965 10.6016C26.1917 10.6017 26.0882 10.5785 25.9937 10.5336C25.8993 10.4886 25.8163 10.4232 25.7509 10.3421L23.8892 8.03737C23.8319 7.96647 23.7893 7.88509 23.7637 7.79787C23.7382 7.71066 23.7302 7.61931 23.7403 7.52905C23.7504 7.43879 23.7784 7.35139 23.8226 7.27183C23.8668 7.19227 23.9264 7.12211 23.998 7.06536C24.0696 7.00862 24.1518 6.96639 24.2398 6.94109C24.3279 6.91579 24.4201 6.90792 24.5113 6.91793C24.6024 6.92793 24.6906 6.95562 24.771 6.9994C24.8513 7.04319 24.9222 7.10221 24.9795 7.17311L26.8411 9.4778C26.9234 9.57946 26.975 9.70207 26.9899 9.83149C27.0049 9.96092 26.9826 10.0919 26.9257 10.2094C26.8688 10.3268 26.7795 10.4259 26.6682 10.4953C26.5569 10.5647 26.428 10.6015 26.2965 10.6016Z" fill="var(--fill-0, white)"/>
<path id="Vector_14" d="M15.5914 10.6015C15.46 10.6014 15.3312 10.5646 15.22 10.4952C15.1087 10.4258 15.0195 10.3268 14.9626 10.2094C14.9057 10.0921 14.8834 9.96117 14.8983 9.83181C14.9132 9.70246 14.9646 9.57989 15.0468 9.47823L16.9084 7.17354C17.0242 7.03036 17.1926 6.93856 17.3766 6.91836C17.5607 6.89815 17.7453 6.95119 17.8899 7.06579C18.0345 7.1804 18.1272 7.3472 18.1476 7.52948C18.168 7.71177 18.1144 7.89461 17.9987 8.0378L16.137 10.3425C16.0716 10.4235 15.9885 10.4889 15.8941 10.5337C15.7996 10.5785 15.6962 10.6017 15.5914 10.6015Z" fill="var(--fill-0, white)"/>
<path id="Vector_15" d="M19.7807 15.6719H11.8685C11.6834 15.6719 11.5058 15.599 11.3749 15.4694C11.244 15.3397 11.1704 15.1638 11.1704 14.9805C11.1704 14.7971 11.244 14.6212 11.3749 14.4916C11.5058 14.3619 11.6834 14.2891 11.8685 14.2891H19.7807C19.9658 14.2891 20.1434 14.3619 20.2743 14.4916C20.4053 14.6212 20.4788 14.7971 20.4788 14.9805C20.4788 15.1638 20.4053 15.3397 20.2743 15.4694C20.1434 15.599 19.9658 15.6719 19.7807 15.6719Z" fill="var(--fill-0, white)"/>
<path id="Vector_16" d="M15.5912 18.4375H10.4716C10.2864 18.4375 10.1088 18.3647 9.97792 18.235C9.84699 18.1053 9.77344 17.9295 9.77344 17.7461C9.77344 17.5627 9.84699 17.3869 9.97792 17.2572C10.1088 17.1275 10.2864 17.0547 10.4716 17.0547H15.5912C15.7764 17.0547 15.9539 17.1275 16.0848 17.2572C16.2158 17.3869 16.2893 17.5627 16.2893 17.7461C16.2893 17.9295 16.2158 18.1053 16.0848 18.235C15.9539 18.3647 15.7764 18.4375 15.5912 18.4375Z" fill="var(--fill-0, white)"/>
<path id="Vector_17" d="M14.8935 29.5C10.9435 29.5 7.15526 27.946 4.36219 25.1798C1.56913 22.4137 0 18.6619 0 14.75C0 10.8381 1.56913 7.08634 4.36219 4.32018C7.15526 1.55401 10.9435 0 14.8935 0C15.0786 0 15.2562 0.0728444 15.3871 0.202508C15.518 0.332172 15.5916 0.508034 15.5916 0.691406C15.5916 0.874779 15.518 1.05064 15.3871 1.1803C15.2562 1.30997 15.0786 1.38281 14.8935 1.38281C12.7006 1.38284 10.5408 1.91201 8.60084 2.92453C6.66091 3.93706 4.99928 5.40245 3.75973 7.19392C2.52017 8.98539 1.74002 11.049 1.48676 13.2062C1.2335 15.3634 1.51477 17.5492 2.30623 19.5746C3.09768 21.5999 4.37549 23.4038 6.02911 24.8301C7.68272 26.2564 9.66234 27.2622 11.7967 27.7606C13.931 28.2589 16.1558 28.2346 18.2786 27.69C20.4014 27.1453 22.3582 26.0967 23.9797 24.6347C24.0492 24.572 24.1307 24.5239 24.2194 24.4932C24.308 24.4625 24.4021 24.4498 24.4958 24.4559C24.5895 24.4621 24.681 24.4869 24.7649 24.5288C24.8487 24.5708 24.9231 24.6291 24.9837 24.7003L26.195 26.1236L27.2533 22.125H23.1178L23.6058 22.7991C23.6592 22.8729 23.6974 22.9564 23.7182 23.0448C23.7391 23.1333 23.7421 23.2249 23.7272 23.3145C23.7122 23.4041 23.6796 23.4899 23.6312 23.567C23.5828 23.6441 23.5196 23.711 23.445 23.7639C23.3705 23.8168 23.2862 23.8547 23.1969 23.8753C23.1076 23.8959 23.0151 23.8989 22.9247 23.8841C22.8342 23.8694 22.7476 23.8371 22.6697 23.7891C22.5918 23.7412 22.5243 23.6785 22.4709 23.6047L21.1909 21.8365C21.1161 21.7331 21.0716 21.6114 21.0621 21.4846C21.0526 21.3578 21.0787 21.2308 21.1373 21.1177C21.196 21.0046 21.285 20.9097 21.3945 20.8435C21.5041 20.7772 21.63 20.7422 21.7584 20.7422H28.1579C28.2647 20.7423 28.37 20.7666 28.4657 20.8132C28.5615 20.8599 28.6451 20.9277 28.7103 21.0114C28.7755 21.0951 28.8204 21.1924 28.8417 21.296C28.8629 21.3996 28.8599 21.5066 28.8328 21.6089L27.2038 27.7646C27.1714 27.8871 27.1056 27.9985 27.0136 28.0865C26.9216 28.1746 26.807 28.2359 26.6822 28.2638C26.5575 28.2917 26.4273 28.2851 26.3061 28.2447C26.1848 28.2044 26.0771 28.1318 25.9947 28.0349L24.3717 26.1276C21.7052 28.3105 18.353 29.5032 14.8935 29.5Z" fill="var(--fill-0, white)"/>
</g>
<defs>
<clipPath id="clip0_0_1125">
<rect width="124.5" height="29.5" fill="white"/>
</clipPath>
</defs>
</svg>
