<svg xmlns="http://www.w3.org/2000/svg" width="24" height="24" viewBox="0 0 24 24" fill="none">
  <g transform="translate(2.4, 2.4)">
    <path d="M10.1371 4.4758C8.61792 4.411 7.13592 4.9558 6.02232 5.9914C4.95672 7.039 4.38432 8.4898 4.44912 9.9838C4.37952 11.239 4.81152 12.4702 5.64912 13.4074C6.51792 14.2678 7.70832 14.7226 8.92992 14.6578C9.04872 14.6602 9.16272 14.6326 9.28032 14.6242C9.15312 13.9798 9.05952 13.2802 9.02952 12.4954C7.79712 12.427 7.17432 11.611 7.17432 10.0306C7.12392 9.1246 7.41552 8.2318 7.99152 7.5298C8.57952 6.8998 9.41832 6.5638 10.2787 6.613C10.7323 6.6082 11.1859 6.6514 11.6299 6.7426L11.4907 9.1198C12.8695 9.0598 13.7875 8.2846 13.7971 8.2774L14.2411 7.8682L14.3695 5.1334C13.7155 4.9234 13.0447 4.7686 12.3655 4.6702C11.6287 4.5466 10.8835 4.4818 10.1371 4.4758Z" fill="#3A3A39"/>
    <path d="M9.99672 16.9258C9.79272 16.9354 9.58873 16.957 9.38472 16.9594C7.54392 17.0866 5.72952 16.4614 4.35792 15.2266C3.12792 13.8742 2.50152 12.0778 2.62392 10.2538C2.59392 8.785 2.91432 7.3294 3.55872 6.0094C4.14792 4.8202 5.08633 3.8386 6.24793 3.1966C7.51633 2.5222 8.93832 2.1862 10.3747 2.2222C11.5087 2.2018 12.6307 2.4634 13.6375 2.9854C14.5807 3.4846 15.3523 4.2562 15.8539 5.1982C16.3927 6.2278 16.6639 7.3774 16.6399 8.539C16.6399 8.5486 16.6387 8.5582 16.6399 8.5678C17.0467 8.809 17.7643 9.1282 18.7207 9.1282C18.8275 9.1282 18.9379 9.1246 19.0495 9.1162L19.1947 9.1054C19.2043 8.9254 19.2151 8.7454 19.2127 8.5642C19.2451 6.9946 18.8635 5.443 18.1075 4.0666C17.3803 2.7766 16.2883 1.7302 14.9683 1.0606C13.5379 0.337 11.9515 -0.0254 10.3483 0.0022C8.45352 -0.0362 6.58152 0.4282 4.92312 1.3462C3.38232 2.2114 2.12112 3.499 1.28952 5.0578C0.429124 6.6778 -0.0101 8.4886 0.0139 10.3222C-0.1253 12.757 0.7843 15.1342 2.51232 16.8538C4.43952 18.5134 6.93913 19.3558 9.47833 19.2022C10.1227 19.2082 10.7647 19.159 11.4019 19.0798C10.9207 18.5602 10.4191 17.8534 9.99672 16.9258Z" fill="#3A3A39"/>
  </g>
</svg>
