<svg xmlns="http://www.w3.org/2000/svg" width="24" height="24" viewBox="0 0 24 24" fill="none">
  <path transform="translate(2.4, 2.4)" d="M16.8 0H2.3988C1.2 0 0 1.206 0 2.4132V9.6C0 10.8072 1.2012 12 2.4 12H2.9316C3.2868 12 3.576 11.7228 3.6 11.3724C3.6 11.3724 3.5976 9.6312 3.6 9.6C3.6468 8.8356 4.0404 8.4432 4.8 8.4C4.83 8.3976 14.3712 8.3976 14.4 8.4C15.1752 8.4432 15.5736 8.8164 15.6 9.6V11.3724C15.6228 11.724 15.912 12 16.2684 12H16.8C17.9988 12 19.2 10.8072 19.2 9.6V2.4C19.2 1.1928 17.9988 0 16.8 0ZM16.8 3.9432C16.8 4.416 16.452 4.8 16.0236 4.8H13.9764C13.548 4.8 13.2 4.416 13.2 3.9432V3.258C13.2 2.7852 13.548 2.4 13.9764 2.4H16.0236C16.452 2.4 16.8 2.784 16.8 3.258V3.9432Z" fill="#3A3A39"/>
  <path transform="translate(7.2, 12)" d="M8.9304 0H0.6684C0.3 0 0 0.2964 0 0.6648V8.9376C0 9.3048 0.3 9.6012 0.6684 9.6012H8.9304C9.3 9.6012 9.6 9.3048 9.6 8.9376V0.6648C9.6 0.2964 9.3 0 8.9304 0ZM8.4 6.6324C8.4 6.9216 8.1672 7.1616 7.8636 7.2H1.7352C1.4316 7.1616 1.2 6.9216 1.2 6.6324V6.57C1.2 6.2784 1.4328 6.0384 1.7364 6H7.8612C8.1672 6.0384 8.4 6.2784 8.4 6.57V6.6324ZM8.4 4.2324C8.4 4.5216 8.1672 4.7616 7.8636 4.8H1.7352C1.4316 4.7616 1.2 4.5216 1.2 4.2324V4.17C1.2 3.8784 1.4328 3.6384 1.7364 3.6H7.8612C8.1672 3.6384 8.4 3.8784 8.4 4.17V4.2324ZM8.4 1.8324C8.4 2.1216 8.1672 2.3616 7.8636 2.4H1.7352C1.4316 2.3616 1.2 2.1216 1.2 1.8324V1.77C1.2 1.4784 1.4328 1.2384 1.7364 1.2H7.8612C8.1672 1.2384 8.4 1.4784 8.4 1.77V1.8324Z" fill="#3A3A39"/>
</svg>
