<svg preserveAspectRatio="none" width="100%" height="100%" overflow="visible" style="display: block;" viewBox="0 0 8.77184 14.4116" fill="none" xmlns="http://www.w3.org/2000/svg">
<g id="Vector">
<path d="M4.12774 11.8028C3.86975 11.8028 3.61756 11.8793 3.40305 12.0226C3.18855 12.166 3.02136 12.3697 2.92263 12.608C2.8239 12.8464 2.79807 13.1087 2.8484 13.3617C2.89873 13.6147 3.02297 13.8471 3.20539 14.0296C3.38781 14.212 3.62023 14.3362 3.87326 14.3865C4.12629 14.4369 4.38856 14.411 4.62691 14.3123C4.86526 14.2136 5.06898 14.0464 5.21231 13.8319C5.35564 13.6174 5.43214 13.3652 5.43214 13.1072C5.43277 12.9357 5.39947 12.7658 5.33414 12.6073C5.26881 12.4487 5.17276 12.3047 5.0515 12.1834C4.93025 12.0622 4.78621 11.9661 4.62766 11.9008C4.46912 11.8355 4.29921 11.8022 4.12774 11.8028Z" fill="white"/>
<path d="M4.12784 0.0116001C3.35657 0.0506818 2.60062 0.24168 1.90335 0.573634C1.20608 0.905589 0.581223 1.37196 0.0646376 1.946C0.0210559 1.99374 -0.00209404 2.05665 0.000149036 2.12125C0.00239211 2.18585 0.0298494 2.247 0.0766373 2.2916L1.41224 3.6308C1.45939 3.67801 1.52254 3.70581 1.5892 3.7087C1.65586 3.71159 1.72118 3.68936 1.77224 3.6464C2.41461 3.03267 3.24028 2.64618 4.12304 2.546C4.62616 2.49521 5.12914 2.6437 5.524 2.95959C5.91887 3.27549 6.17415 3.7336 6.23504 4.2356C6.23504 5.9252 2.85584 5.9252 2.85584 8.4608V10.34C2.85584 10.419 2.88715 10.4949 2.94293 10.5509C2.99871 10.6069 3.0744 10.6385 3.15344 10.6388H5.19344C5.24659 10.6388 5.29756 10.6177 5.33514 10.5801C5.37272 10.5425 5.39384 10.4915 5.39384 10.4384V8.8784C5.39384 7.6112 8.77184 7.6112 8.77184 4.232C8.75876 3.64517 8.62647 3.06713 8.383 2.53303C8.13953 1.99893 7.78997 1.51993 7.35557 1.12516C6.92118 0.730386 6.41103 0.428093 5.85615 0.236661C5.30126 0.0452281 4.71324 -0.0313442 4.12784 0.0116001Z" fill="white"/>
</g>
</svg>
