<svg preserveAspectRatio="none" width="100%" height="100%" overflow="visible" style="display: block;" viewBox="0 0 16.0014 16.0057" fill="none" xmlns="http://www.w3.org/2000/svg">
<path id="Vector" d="M8.24141 0.0976444C8.17701 0.0350301 8.09073 0 8.00091 0C7.91109 0 7.82481 0.0350301 7.76041 0.0976444L0.0924094 7.43164C0.0496922 7.48217 0.0204956 7.54271 0.00755332 7.6076C-0.00538899 7.67249 -0.00165383 7.73959 0.0184092 7.80264C0.0461117 7.86275 0.0905647 7.91359 0.146437 7.94906C0.202309 7.98454 0.267229 8.00314 0.333409 8.00264H2.00041V15.7526C1.99973 15.7857 2.00573 15.8185 2.01805 15.8491C2.03037 15.8798 2.04876 15.9076 2.07212 15.9309C2.09547 15.9543 2.1233 15.9727 2.15394 15.985C2.18458 15.9973 2.21739 16.0033 2.25041 16.0026H5.75041C5.78317 16.0033 5.81573 15.9974 5.84617 15.9853C5.87661 15.9731 5.9043 15.955 5.92761 15.932C5.95092 15.9089 5.96937 15.8815 5.98188 15.8512C5.99438 15.8209 6.00068 15.7884 6.00041 15.7556V11.2556C5.99973 11.2226 6.00573 11.1898 6.01805 11.1592C6.03037 11.1285 6.04876 11.1007 6.07212 11.0774C6.09547 11.054 6.1233 11.0356 6.15394 11.0233C6.18458 11.011 6.21739 11.005 6.25041 11.0056H9.75041C9.78343 11.005 9.81624 11.011 9.84688 11.0233C9.87752 11.0356 9.90535 11.054 9.9287 11.0774C9.95205 11.1007 9.97044 11.1285 9.98277 11.1592C9.99509 11.1898 10.0011 11.2226 10.0004 11.2556V15.7556C9.99973 15.7887 10.0057 15.8215 10.0181 15.8521C10.0304 15.8828 10.0488 15.9106 10.0721 15.9339C10.0955 15.9573 10.1233 15.9757 10.1539 15.988C10.1846 16.0003 10.2174 16.0063 10.2504 16.0056H13.7504C13.7834 16.0063 13.8162 16.0003 13.8469 15.988C13.8775 15.9757 13.9054 15.9573 13.9287 15.9339C13.9521 15.9106 13.9704 15.8828 13.9828 15.8521C13.9951 15.8215 14.0011 15.7887 14.0004 15.7556V8.00564H15.6684C15.7345 8.00632 15.7994 7.98778 15.8551 7.95228C15.9109 7.91677 15.9551 7.86583 15.9824 7.80564C16.003 7.74265 16.0069 7.67543 15.994 7.61046C15.981 7.54548 15.9515 7.48493 15.9084 7.43464L8.24141 0.0976444Z" fill="var(--fill-0, #40484B)"/>
</svg>
