<svg xmlns="http://www.w3.org/2000/svg" width="24" height="24" viewBox="0 0 24 24" fill="none">
  <g transform="translate(2.4, 5.4)">
    <path d="M10.3368 7.0668L18.8892 0.4152C18.7794 0.2864 18.6431 0.1827 18.4897 0.1111C18.3363 0.0394 18.1693 0.0016 18 0H1.20004C1.03075 0.0016 0.863764 0.0394 0.710364 0.1111C0.556964 0.1827 0.420722 0.2864 0.31084 0.4152L8.86324 7.0668C9.07389 7.2307 9.33316 7.3196 9.60004 7.3196C9.86692 7.3196 10.1262 7.2307 10.3368 7.0668Z" fill="#434B4E"/>
    <path d="M6.57 6.804L0 1.6932V12C0.0001 12.1614 0.0332 12.3211 0.0972 12.4692L6.57 6.804Z" fill="#434B4E"/>
    <path d="M19.1028 12.4692C19.1668 12.3211 19.1999 12.1614 19.2 12V1.6932L12.63 6.804L19.1028 12.4692Z" fill="#434B4E"/>
    <path d="M11.6653 7.56L10.3369 8.5932C10.1262 8.757 9.86693 8.846 9.60005 8.846C9.33317 8.846 9.0739 8.757 8.86325 8.5932L7.53485 7.56L1.10405 13.1808C1.13765 13.1808 1.16645 13.2 1.20005 13.2H18.0001C18.0337 13.2 18.0625 13.1832 18.0961 13.1808L11.6653 7.56Z" fill="#434B4E"/>
  </g>
</svg>
