<svg xmlns="http://www.w3.org/2000/svg" width="20" height="20" viewBox="0 0 20 20" fill="none">
  <g transform="translate(2, 5)">
    <path d="M9.206 3.723C8.889 3.425 8.466 3.239 7.997 3.239C7.019 3.239 6.227 4.031 6.227 5.008C6.227 5.985 7.019 6.777 7.997 6.777C8.032 6.777 8.065 6.769 8.1 6.767V5.505C8.1 4.725 8.553 4.054 9.206 3.723Z" fill="#3A3A39"/>
    <path d="M8.101 8.435C8.066 8.436 8.033 8.446 7.998 8.446C6.2 8.446 4.563 6.907 4.563 5.008C4.563 3.109 6.2 1.57 7.998 1.57C9.28 1.57 10.473 2.361 11.058 3.5H13.153C13.448 3.5 13.731 3.562 13.997 3.685C14.206 3.779 14.409 3.919 14.584 4.097C14.584 4.097 15.275 4.788 15.917 5.431C15.967 5.299 16.001 5.159 16.001 5.008C16.001 4.768 15.933 4.545 15.814 4.361C14.133 1.766 11.327 0.051 8.136 0.003C8.09 0.002 8.043 0 7.997 0C7.951 0 7.904 0.001 7.858 0.003C4.669 0.051 1.861 1.763 0.182 4.356L0.187 4.361C0.07 4.545 0 4.768 0 5.008C0 5.235 0.06 5.445 0.167 5.624C0.185 5.652 0.203 5.679 0.221 5.706C1.837 8.159 4.469 9.811 7.472 9.985C7.645 9.995 7.82 10 7.996 10C8.03 10 8.064 9.997 8.099 9.997V8.435H8.101Z" fill="#3A3A39"/>
  </g>
  <g transform="translate(11.6, 10)">
    <path d="M6.355 2.636C6.334 2.59 6.307 2.547 6.274 2.509L6.223 2.458L3.917 0.152C3.874 0.109 3.823 0.073 3.766 0.047C3.701 0.017 3.629 0 3.552 0H0.504C0.225 0 0 0.226 0 0.504V7.495C0 7.774 0.226 8 0.504 8H5.895C6.174 8 6.399 7.774 6.399 7.495V2.846C6.399 2.77 6.383 2.699 6.353 2.634L6.355 2.636ZM5.601 7.098C5.595 7.152 5.55 7.195 5.495 7.198H0.908C0.849 7.195 0.803 7.147 0.801 7.088V0.914C0.803 0.853 0.851 0.802 0.912 0.8H3.391C3.566 0.8 3.713 0.93 3.735 1.099V2.434C3.735 2.561 3.838 2.666 3.964 2.666H5.301C5.47 2.688 5.601 2.835 5.601 3.01V7.098Z" fill="#3A3A39"/>
  </g>
  <g transform="translate(13.2, 13.2)">
    <path d="M2.933 0H0.267C0.1195 0 0 0.1193 0 0.2665C0 0.4137 0.1195 0.533 0.267 0.533H2.933C3.0805 0.533 3.2 0.4137 3.2 0.2665C3.2 0.1193 3.0805 0 2.933 0Z" fill="#3A3A39"/>
  </g>
  <g transform="translate(13.2, 14.27)">
    <path d="M2.933 0H0.267C0.1195 0 0 0.1193 0 0.2665C0 0.4137 0.1195 0.533 0.267 0.533H2.933C3.0805 0.533 3.2 0.4137 3.2 0.2665C3.2 0.1193 3.0805 0 2.933 0Z" fill="#3A3A39"/>
  </g>
  <g transform="translate(13.2, 15.336)">
    <path d="M2.933 0H0.267C0.1195 0 0 0.1193 0 0.2665C0 0.4137 0.1195 0.533 0.267 0.533H2.933C3.0805 0.533 3.2 0.4137 3.2 0.2665C3.2 0.1193 3.0805 0 2.933 0Z" fill="#3A3A39"/>
  </g>
</svg>
