<svg preserveAspectRatio="xMidYMid meet" width="100%" height="100%" overflow="visible" style="display: block;" viewBox="0 0 6.999 6" fill="none" xmlns="http://www.w3.org/2000/svg">
<path id="Vector" d="M3.732 0.052C3.684 0.019 3.625 0 3.563 0C3.394 0 3.249 0.078 3.25 0.25V1.5C3.25 1.5 3.25 1.75 3 1.75H0.25C0 1.75 0 2 0 2V4C0 4 0 4.25 0.25 4.25H3C3.25 4.25 3.25 4.5 3.25 4.5V5.75C3.25 5.922 3.404 5.999 3.573 6C3.638 6 3.698 5.98 3.747 5.945L6.832 3.366C6.934 3.281 6.999 3.145 6.999 3C6.999 2.855 6.933 2.732 6.831 2.646L3.732 0.052Z" fill="var(--fill-0, #3A3A39)"/>
</svg>
