<svg preserveAspectRatio="xMidYMid meet" width="100%" height="100%" overflow="visible" style="display: block;" viewBox="0 0 13.6227 16" fill="none" xmlns="http://www.w3.org/2000/svg">
<path id="Vector" d="M8 0C10 0 11.797 0.74 13.25 2C13.667 2.362 13.7 2.947 13.339 3.365C12.977 3.782 12.418 3.862 12 3.5C10.911 2.556 9.5 2 8 2C4.75 2 2 4.692 2 8C2 11.308 4.75 14 8 14C9.5 14 10.901 13.476 12 12.5C12.413 12.133 13.029 12.157 13.396 12.571C13.763 12.984 13.663 13.633 13.25 14C11.785 15.301 10 16 8 16C3.5 16 0 12.5 0 8C0 3.5 3.5 0 8 0Z" fill="var(--fill-0, #3A3A39)"/>
</svg>
