<svg xmlns="http://www.w3.org/2000/svg" width="20" height="20" viewBox="0 0 20 20" fill="none">
  <path d="M16.474 7.908l-1.39-.58a5.37 5.37 0 00-.47-.81l.46-1.43a.38.38 0 00-.1-.39l-1.3-1.3a.38.38 0 00-.39-.1l-1.43.46a5.37 5.37 0 00-.81-.47l-.58-1.39a.38.38 0 00-.35-.24H8.27a.38.38 0 00-.35.24l-.58 1.39c-.28.13-.55.29-.81.47l-1.43-.46a.38.38 0 00-.39.1l-1.3 1.3a.38.38 0 00-.1.39l.46 1.43c-.18.26-.34.53-.47.81l-1.39.58a.38.38 0 00-.24.35v1.84a.38.38 0 00.24.35l1.39.58c.13.28.29.55.47.81l-.46 1.43a.38.38 0 00.1.39l1.3 1.3a.38.38 0 00.39.1l1.43-.46c.26.18.53.34.81.47l.58 1.39a.38.38 0 00.35.24h1.84a.38.38 0 00.35-.24l.58-1.39c.28-.13.55-.29.81-.47l1.43.46a.38.38 0 00.39-.1l1.3-1.3a.38.38 0 00.1-.39l-.46-1.43c.18-.26.34-.53.47-.81l1.39-.58a.38.38 0 00.24-.35V8.258a.38.38 0 00-.24-.35zM9.19 12.6a3.42 3.42 0 110-6.84 3.42 3.42 0 010 6.84z" fill="#40484b"/>
</svg>
