<svg xmlns="http://www.w3.org/2000/svg" width="24" height="24" viewBox="0 0 24 24" fill="none">
  <path transform="translate(6.6, 2.4)" d="M8.4 18.6C7.7304 18.6 7.1172 18.372 6.618 18H1.8C1.4688 18 1.2 17.7312 1.2 17.4V3C1.2 2.6688 1.4688 2.4 1.8 2.4H9C9.3312 2.4 9.6 2.6688 9.6 3V7.8H10.8V1.2C10.8 0.5376 10.2624 0 9.6 0H1.2C0.5376 0 0 0.5376 0 1.2V18C0 18.6624 0.5376 19.2 1.2 19.2H9.6C10.0392 19.2 10.4064 18.9516 10.6164 18.6H8.4ZM3.9 1.2H6.9C7.0656 1.2 7.2 1.3344 7.2 1.5C7.2 1.6656 7.0656 1.8 6.9 1.8H3.9C3.7344 1.8 3.6 1.6656 3.6 1.5C3.6 1.3344 3.7344 1.2 3.9 1.2Z" fill="#3A3A39"/>
  <path transform="translate(11.4, 9.6)" d="M8.4 0H1.2C0.5376 0 0 0.5376 0 1.2V6C0 6.6624 0.5376 7.2 1.2 7.2H6L7.8876 9.0876C8.076 9.276 8.4 9.1428 8.4 8.8752V7.2C9.0624 7.2 9.6 6.6624 9.6 6V1.2C9.6 0.5376 9.0624 0 8.4 0ZM1.2 4.2C1.2 3.8688 1.4688 3.6 1.8 3.6H5.4C5.7312 3.6 6 3.8688 6 4.2C6 4.5312 5.7312 4.8 5.4 4.8H1.8C1.4688 4.8 1.2 4.5312 1.2 4.2ZM7.8 2.4H1.8C1.4688 2.4 1.2 2.1312 1.2 1.8C1.2 1.4688 1.4688 1.2 1.8 1.2H7.8C8.1312 1.2 8.4 1.4688 8.4 1.8C8.4 2.1312 8.1312 2.4 7.8 2.4Z" fill="#3A3A39"/>
</svg>
