<svg width="20" height="20" viewBox="0 0 20 20" fill="none" xmlns="http://www.w3.org/2000/svg">
<path d="M9.5 2.5C9.75 2.25 10 2 10.5 2H15C15.627 2.004 15.999 2.373 16 3V3.25H11.5C10.8333 3.25 10.217 3.495 9.651 3.985L3 10.5C2.5 10 2.5 9.5 3 9L9.5 2.5Z" fill="#3A3A39"/>
<path d="M3.99963 11.5C3.24963 12.25 3.74963 13 3.99963 13.25L8.24963 17.5C8.49963 17.75 9.24963 18.25 9.99963 17.5L16.4996 11C16.7496 10.75 16.9996 10.5 16.9996 10V5.75C16.9996 5 16.4996 4.5 15.7496 4.5H11.4996C10.9996 4.5 10.7496 4.75 10.4996 5L3.99963 11.5ZM13.7496 6.25C14.1396 5.859 14.8586 5.859 15.2496 6.25C15.6406 6.64 15.6406 7.36 15.2496 7.75C14.8586 8.141 14.1396 8.141 13.7496 7.75C13.3586 7.36 13.3586 6.64 13.7496 6.25Z" fill="#3A3A39"/>
</svg>
