<svg preserveAspectRatio="none" width="100%" height="100%" overflow="visible" style="display: block;" viewBox="0 0 19.2 19.2" fill="none" xmlns="http://www.w3.org/2000/svg">
<path id="Vector" d="M19.2 18.7992C19.2003 18.8518 19.1902 18.904 19.1703 18.9527C19.1503 19.0014 19.1209 19.0456 19.0837 19.0829C19.0466 19.1202 19.0024 19.1497 18.9538 19.1698C18.9052 19.1899 18.853 19.2002 18.8004 19.2H0.399607C0.346985 19.2002 0.294853 19.1899 0.246221 19.1698C0.197589 19.1497 0.15342 19.1202 0.116267 19.0829C0.0791129 19.0456 0.0497096 19.0014 0.029755 18.9527C0.00980045 18.904 -0.000310003 18.8518 7.24072e-06 18.7992V18C7.24072e-06 14.0004 7.20001 14.8008 7.20001 11.6004C5.58405 9.70985 4.72864 7.28605 4.80001 4.8C4.80001 3.52696 5.30572 2.30606 6.20589 1.40589C7.10607 0.505713 8.32697 0 9.60001 0C10.873 0 12.0939 0.505713 12.9941 1.40589C13.8943 2.30606 14.4 3.52696 14.4 4.8C14.4711 7.28564 13.6157 9.70896 12 11.5992C12 14.7996 19.2 13.9992 19.2 17.9988V18.7992Z" fill="var(--fill-0, white)"/>
</svg>
