<svg xmlns="http://www.w3.org/2000/svg" width="24" height="24" viewBox="0 0 24 24" fill="none">
  <path transform="translate(6, 2.4)" d="M7.2 8.4V4.8C8.0352 5.0028 8.7156 5.3688 9.3 5.7L10.8 3.6C10.8 3.6 9.6 2.4 7.2 1.8V0H4.8V1.8C2.7 2.1 0 3.3 0 6.3C0 9.9 2.6856 10.6572 4.8 10.9908V14.2128C3.9048 14.0148 2.1204 13.2528 1.5 12.9L0 15.6C0 15.6 2.7 17.1 4.8 17.4V19.2H7.2V17.4C9.3 17.1 12 15.9 12 12.6C12 9.3 9.2616 8.7492 7.2 8.4ZM4.8 7.8C3.6 7.8 3 7.2 3 6.3C3 5.4 3.6 4.8 4.8 4.8V7.8ZM7.2 14.4V11.4C8.4 11.4 9 12 9 12.9C9 13.8 8.4 14.4 7.2 14.4Z" fill="#434B4E"/>
</svg>
